<svg xmlns="http://www.w3.org/2000/svg" viewBox="-150 -150 300 300" width="300" height="300">
  <defs>
    <linearGradient id="mandalaGrad" x1="0%" y1="0%" x2="100%" y2="100%">
      <stop offset="0%" style="stop-color:hsl(183,70%,60%)"/>
      <stop offset="100%" style="stop-color:hsl(201,70%,50%)"/>
    </linearGradient>
    <filter id="glow">
      <feGaussianBlur stdDeviation="2" result="blur"/>
      <feMerge><feMergeNode in="blur"/><feMergeNode in="SourceGraphic"/></feMerge>
    </filter>
  </defs>
  
  <!-- Background -->
  <circle cx="0" cy="0" r="145" fill="#0d1117"/>
  
  <!-- Mandala layers -->
  <g opacity=".85" filter="url(#glow)">
<ellipse cx="0" cy="-100" rx="18" ry="35" fill="url(#mandalaGrad)" transform="rotate(27.6923)"/>
<ellipse cx="0" cy="-100" rx="18" ry="35" fill="url(#mandalaGrad)" transform="rotate(55.3846)"/>
<ellipse cx="0" cy="-100" rx="18" ry="35" fill="url(#mandalaGrad)" transform="rotate(83.0769)"/>
<ellipse cx="0" cy="-100" rx="18" ry="35" fill="url(#mandalaGrad)" transform="rotate(110.7692)"/>
<ellipse cx="0" cy="-100" rx="18" ry="35" fill="url(#mandalaGrad)" transform="rotate(138.4615)"/>
<ellipse cx="0" cy="-100" rx="18" ry="35" fill="url(#mandalaGrad)" transform="rotate(166.1538)"/>
<ellipse cx="0" cy="-100" rx="18" ry="35" fill="url(#mandalaGrad)" transform="rotate(193.8461)"/>
<ellipse cx="0" cy="-100" rx="18" ry="35" fill="url(#mandalaGrad)" transform="rotate(221.5384)"/>
<ellipse cx="0" cy="-100" rx="18" ry="35" fill="url(#mandalaGrad)" transform="rotate(249.2307)"/>
<ellipse cx="0" cy="-100" rx="18" ry="35" fill="url(#mandalaGrad)" transform="rotate(276.9230)"/>
<ellipse cx="0" cy="-100" rx="18" ry="35" fill="url(#mandalaGrad)" transform="rotate(304.6153)"/>
<ellipse cx="0" cy="-100" rx="18" ry="35" fill="url(#mandalaGrad)" transform="rotate(332.3076)"/>
<ellipse cx="0" cy="-100" rx="18" ry="35" fill="url(#mandalaGrad)" transform="rotate(360.0000)"/>
</g>
<g opacity=".70" filter="url(#glow)">
<ellipse cx="0" cy="-80" rx="21" ry="40" fill="url(#mandalaGrad)" transform="rotate(27.6923)"/>
<ellipse cx="0" cy="-80" rx="21" ry="40" fill="url(#mandalaGrad)" transform="rotate(55.3846)"/>
<ellipse cx="0" cy="-80" rx="21" ry="40" fill="url(#mandalaGrad)" transform="rotate(83.0769)"/>
<ellipse cx="0" cy="-80" rx="21" ry="40" fill="url(#mandalaGrad)" transform="rotate(110.7692)"/>
<ellipse cx="0" cy="-80" rx="21" ry="40" fill="url(#mandalaGrad)" transform="rotate(138.4615)"/>
<ellipse cx="0" cy="-80" rx="21" ry="40" fill="url(#mandalaGrad)" transform="rotate(166.1538)"/>
<ellipse cx="0" cy="-80" rx="21" ry="40" fill="url(#mandalaGrad)" transform="rotate(193.8461)"/>
<ellipse cx="0" cy="-80" rx="21" ry="40" fill="url(#mandalaGrad)" transform="rotate(221.5384)"/>
<ellipse cx="0" cy="-80" rx="21" ry="40" fill="url(#mandalaGrad)" transform="rotate(249.2307)"/>
<ellipse cx="0" cy="-80" rx="21" ry="40" fill="url(#mandalaGrad)" transform="rotate(276.9230)"/>
<ellipse cx="0" cy="-80" rx="21" ry="40" fill="url(#mandalaGrad)" transform="rotate(304.6153)"/>
<ellipse cx="0" cy="-80" rx="21" ry="40" fill="url(#mandalaGrad)" transform="rotate(332.3076)"/>
<ellipse cx="0" cy="-80" rx="21" ry="40" fill="url(#mandalaGrad)" transform="rotate(360.0000)"/>
</g>
<g opacity=".55" filter="url(#glow)">
<ellipse cx="0" cy="-60" rx="24" ry="45" fill="url(#mandalaGrad)" transform="rotate(27.6923)"/>
<ellipse cx="0" cy="-60" rx="24" ry="45" fill="url(#mandalaGrad)" transform="rotate(55.3846)"/>
<ellipse cx="0" cy="-60" rx="24" ry="45" fill="url(#mandalaGrad)" transform="rotate(83.0769)"/>
<ellipse cx="0" cy="-60" rx="24" ry="45" fill="url(#mandalaGrad)" transform="rotate(110.7692)"/>
<ellipse cx="0" cy="-60" rx="24" ry="45" fill="url(#mandalaGrad)" transform="rotate(138.4615)"/>
<ellipse cx="0" cy="-60" rx="24" ry="45" fill="url(#mandalaGrad)" transform="rotate(166.1538)"/>
<ellipse cx="0" cy="-60" rx="24" ry="45" fill="url(#mandalaGrad)" transform="rotate(193.8461)"/>
<ellipse cx="0" cy="-60" rx="24" ry="45" fill="url(#mandalaGrad)" transform="rotate(221.5384)"/>
<ellipse cx="0" cy="-60" rx="24" ry="45" fill="url(#mandalaGrad)" transform="rotate(249.2307)"/>
<ellipse cx="0" cy="-60" rx="24" ry="45" fill="url(#mandalaGrad)" transform="rotate(276.9230)"/>
<ellipse cx="0" cy="-60" rx="24" ry="45" fill="url(#mandalaGrad)" transform="rotate(304.6153)"/>
<ellipse cx="0" cy="-60" rx="24" ry="45" fill="url(#mandalaGrad)" transform="rotate(332.3076)"/>
<ellipse cx="0" cy="-60" rx="24" ry="45" fill="url(#mandalaGrad)" transform="rotate(360.0000)"/>
</g>
<g opacity=".40" filter="url(#glow)">
<ellipse cx="0" cy="-40" rx="27" ry="50" fill="url(#mandalaGrad)" transform="rotate(27.6923)"/>
<ellipse cx="0" cy="-40" rx="27" ry="50" fill="url(#mandalaGrad)" transform="rotate(55.3846)"/>
<ellipse cx="0" cy="-40" rx="27" ry="50" fill="url(#mandalaGrad)" transform="rotate(83.0769)"/>
<ellipse cx="0" cy="-40" rx="27" ry="50" fill="url(#mandalaGrad)" transform="rotate(110.7692)"/>
<ellipse cx="0" cy="-40" rx="27" ry="50" fill="url(#mandalaGrad)" transform="rotate(138.4615)"/>
<ellipse cx="0" cy="-40" rx="27" ry="50" fill="url(#mandalaGrad)" transform="rotate(166.1538)"/>
<ellipse cx="0" cy="-40" rx="27" ry="50" fill="url(#mandalaGrad)" transform="rotate(193.8461)"/>
<ellipse cx="0" cy="-40" rx="27" ry="50" fill="url(#mandalaGrad)" transform="rotate(221.5384)"/>
<ellipse cx="0" cy="-40" rx="27" ry="50" fill="url(#mandalaGrad)" transform="rotate(249.2307)"/>
<ellipse cx="0" cy="-40" rx="27" ry="50" fill="url(#mandalaGrad)" transform="rotate(276.9230)"/>
<ellipse cx="0" cy="-40" rx="27" ry="50" fill="url(#mandalaGrad)" transform="rotate(304.6153)"/>
<ellipse cx="0" cy="-40" rx="27" ry="50" fill="url(#mandalaGrad)" transform="rotate(332.3076)"/>
<ellipse cx="0" cy="-40" rx="27" ry="50" fill="url(#mandalaGrad)" transform="rotate(360.0000)"/>
</g>
<g opacity=".25" filter="url(#glow)">
<ellipse cx="0" cy="-20" rx="30" ry="55" fill="url(#mandalaGrad)" transform="rotate(27.6923)"/>
<ellipse cx="0" cy="-20" rx="30" ry="55" fill="url(#mandalaGrad)" transform="rotate(55.3846)"/>
<ellipse cx="0" cy="-20" rx="30" ry="55" fill="url(#mandalaGrad)" transform="rotate(83.0769)"/>
<ellipse cx="0" cy="-20" rx="30" ry="55" fill="url(#mandalaGrad)" transform="rotate(110.7692)"/>
<ellipse cx="0" cy="-20" rx="30" ry="55" fill="url(#mandalaGrad)" transform="rotate(138.4615)"/>
<ellipse cx="0" cy="-20" rx="30" ry="55" fill="url(#mandalaGrad)" transform="rotate(166.1538)"/>
<ellipse cx="0" cy="-20" rx="30" ry="55" fill="url(#mandalaGrad)" transform="rotate(193.8461)"/>
<ellipse cx="0" cy="-20" rx="30" ry="55" fill="url(#mandalaGrad)" transform="rotate(221.5384)"/>
<ellipse cx="0" cy="-20" rx="30" ry="55" fill="url(#mandalaGrad)" transform="rotate(249.2307)"/>
<ellipse cx="0" cy="-20" rx="30" ry="55" fill="url(#mandalaGrad)" transform="rotate(276.9230)"/>
<ellipse cx="0" cy="-20" rx="30" ry="55" fill="url(#mandalaGrad)" transform="rotate(304.6153)"/>
<ellipse cx="0" cy="-20" rx="30" ry="55" fill="url(#mandalaGrad)" transform="rotate(332.3076)"/>
<ellipse cx="0" cy="-20" rx="30" ry="55" fill="url(#mandalaGrad)" transform="rotate(360.0000)"/>
</g>
<g opacity=".10" filter="url(#glow)">
<ellipse cx="0" cy="-0" rx="33" ry="60" fill="url(#mandalaGrad)" transform="rotate(27.6923)"/>
<ellipse cx="0" cy="-0" rx="33" ry="60" fill="url(#mandalaGrad)" transform="rotate(55.3846)"/>
<ellipse cx="0" cy="-0" rx="33" ry="60" fill="url(#mandalaGrad)" transform="rotate(83.0769)"/>
<ellipse cx="0" cy="-0" rx="33" ry="60" fill="url(#mandalaGrad)" transform="rotate(110.7692)"/>
<ellipse cx="0" cy="-0" rx="33" ry="60" fill="url(#mandalaGrad)" transform="rotate(138.4615)"/>
<ellipse cx="0" cy="-0" rx="33" ry="60" fill="url(#mandalaGrad)" transform="rotate(166.1538)"/>
<ellipse cx="0" cy="-0" rx="33" ry="60" fill="url(#mandalaGrad)" transform="rotate(193.8461)"/>
<ellipse cx="0" cy="-0" rx="33" ry="60" fill="url(#mandalaGrad)" transform="rotate(221.5384)"/>
<ellipse cx="0" cy="-0" rx="33" ry="60" fill="url(#mandalaGrad)" transform="rotate(249.2307)"/>
<ellipse cx="0" cy="-0" rx="33" ry="60" fill="url(#mandalaGrad)" transform="rotate(276.9230)"/>
<ellipse cx="0" cy="-0" rx="33" ry="60" fill="url(#mandalaGrad)" transform="rotate(304.6153)"/>
<ellipse cx="0" cy="-0" rx="33" ry="60" fill="url(#mandalaGrad)" transform="rotate(332.3076)"/>
<ellipse cx="0" cy="-0" rx="33" ry="60" fill="url(#mandalaGrad)" transform="rotate(360.0000)"/>
</g>
  
  <!-- Center -->
  <circle cx="0" cy="0" r="20" fill="url(#mandalaGrad)" filter="url(#glow)">
    <animate attributeName="r" values="18;22;18" dur="3s" repeatCount="indefinite"/>
  </circle>
  
  <!-- Karma inscription -->
  <text x="0" y="140" text-anchor="middle" font-family="monospace" font-size="8" fill="hsl(183,70%,70%)">
    karma:378 | seed:903
  </text>
</svg>
