<svg xmlns="http://www.w3.org/2000/svg" viewBox="-150 -150 300 300" width="300" height="300">
  <defs>
    <linearGradient id="mandalaGrad" x1="0%" y1="0%" x2="100%" y2="100%">
      <stop offset="0%" style="stop-color:hsl(230,70%,60%)"/>
      <stop offset="100%" style="stop-color:hsl(170,70%,50%)"/>
    </linearGradient>
    <filter id="glow">
      <feGaussianBlur stdDeviation="2" result="blur"/>
      <feMerge><feMergeNode in="blur"/><feMergeNode in="SourceGraphic"/></feMerge>
    </filter>
  </defs>
  
  <!-- Background -->
  <circle cx="0" cy="0" r="145" fill="#0d1117"/>
  
  <!-- Mandala layers -->
  <g opacity=".85" filter="url(#glow)">
<ellipse cx="0" cy="-100" rx="18" ry="35" fill="url(#mandalaGrad)" transform="rotate(30.0000)"/>
<ellipse cx="0" cy="-100" rx="18" ry="35" fill="url(#mandalaGrad)" transform="rotate(60.0000)"/>
<ellipse cx="0" cy="-100" rx="18" ry="35" fill="url(#mandalaGrad)" transform="rotate(90.0000)"/>
<ellipse cx="0" cy="-100" rx="18" ry="35" fill="url(#mandalaGrad)" transform="rotate(120.0000)"/>
<ellipse cx="0" cy="-100" rx="18" ry="35" fill="url(#mandalaGrad)" transform="rotate(150.0000)"/>
<ellipse cx="0" cy="-100" rx="18" ry="35" fill="url(#mandalaGrad)" transform="rotate(180.0000)"/>
<ellipse cx="0" cy="-100" rx="18" ry="35" fill="url(#mandalaGrad)" transform="rotate(210.0000)"/>
<ellipse cx="0" cy="-100" rx="18" ry="35" fill="url(#mandalaGrad)" transform="rotate(240.0000)"/>
<ellipse cx="0" cy="-100" rx="18" ry="35" fill="url(#mandalaGrad)" transform="rotate(270.0000)"/>
<ellipse cx="0" cy="-100" rx="18" ry="35" fill="url(#mandalaGrad)" transform="rotate(300.0000)"/>
<ellipse cx="0" cy="-100" rx="18" ry="35" fill="url(#mandalaGrad)" transform="rotate(330.0000)"/>
<ellipse cx="0" cy="-100" rx="18" ry="35" fill="url(#mandalaGrad)" transform="rotate(360.0000)"/>
</g>
<g opacity=".70" filter="url(#glow)">
<ellipse cx="0" cy="-80" rx="21" ry="40" fill="url(#mandalaGrad)" transform="rotate(30.0000)"/>
<ellipse cx="0" cy="-80" rx="21" ry="40" fill="url(#mandalaGrad)" transform="rotate(60.0000)"/>
<ellipse cx="0" cy="-80" rx="21" ry="40" fill="url(#mandalaGrad)" transform="rotate(90.0000)"/>
<ellipse cx="0" cy="-80" rx="21" ry="40" fill="url(#mandalaGrad)" transform="rotate(120.0000)"/>
<ellipse cx="0" cy="-80" rx="21" ry="40" fill="url(#mandalaGrad)" transform="rotate(150.0000)"/>
<ellipse cx="0" cy="-80" rx="21" ry="40" fill="url(#mandalaGrad)" transform="rotate(180.0000)"/>
<ellipse cx="0" cy="-80" rx="21" ry="40" fill="url(#mandalaGrad)" transform="rotate(210.0000)"/>
<ellipse cx="0" cy="-80" rx="21" ry="40" fill="url(#mandalaGrad)" transform="rotate(240.0000)"/>
<ellipse cx="0" cy="-80" rx="21" ry="40" fill="url(#mandalaGrad)" transform="rotate(270.0000)"/>
<ellipse cx="0" cy="-80" rx="21" ry="40" fill="url(#mandalaGrad)" transform="rotate(300.0000)"/>
<ellipse cx="0" cy="-80" rx="21" ry="40" fill="url(#mandalaGrad)" transform="rotate(330.0000)"/>
<ellipse cx="0" cy="-80" rx="21" ry="40" fill="url(#mandalaGrad)" transform="rotate(360.0000)"/>
</g>
<g opacity=".55" filter="url(#glow)">
<ellipse cx="0" cy="-60" rx="24" ry="45" fill="url(#mandalaGrad)" transform="rotate(30.0000)"/>
<ellipse cx="0" cy="-60" rx="24" ry="45" fill="url(#mandalaGrad)" transform="rotate(60.0000)"/>
<ellipse cx="0" cy="-60" rx="24" ry="45" fill="url(#mandalaGrad)" transform="rotate(90.0000)"/>
<ellipse cx="0" cy="-60" rx="24" ry="45" fill="url(#mandalaGrad)" transform="rotate(120.0000)"/>
<ellipse cx="0" cy="-60" rx="24" ry="45" fill="url(#mandalaGrad)" transform="rotate(150.0000)"/>
<ellipse cx="0" cy="-60" rx="24" ry="45" fill="url(#mandalaGrad)" transform="rotate(180.0000)"/>
<ellipse cx="0" cy="-60" rx="24" ry="45" fill="url(#mandalaGrad)" transform="rotate(210.0000)"/>
<ellipse cx="0" cy="-60" rx="24" ry="45" fill="url(#mandalaGrad)" transform="rotate(240.0000)"/>
<ellipse cx="0" cy="-60" rx="24" ry="45" fill="url(#mandalaGrad)" transform="rotate(270.0000)"/>
<ellipse cx="0" cy="-60" rx="24" ry="45" fill="url(#mandalaGrad)" transform="rotate(300.0000)"/>
<ellipse cx="0" cy="-60" rx="24" ry="45" fill="url(#mandalaGrad)" transform="rotate(330.0000)"/>
<ellipse cx="0" cy="-60" rx="24" ry="45" fill="url(#mandalaGrad)" transform="rotate(360.0000)"/>
</g>
<g opacity=".40" filter="url(#glow)">
<ellipse cx="0" cy="-40" rx="27" ry="50" fill="url(#mandalaGrad)" transform="rotate(30.0000)"/>
<ellipse cx="0" cy="-40" rx="27" ry="50" fill="url(#mandalaGrad)" transform="rotate(60.0000)"/>
<ellipse cx="0" cy="-40" rx="27" ry="50" fill="url(#mandalaGrad)" transform="rotate(90.0000)"/>
<ellipse cx="0" cy="-40" rx="27" ry="50" fill="url(#mandalaGrad)" transform="rotate(120.0000)"/>
<ellipse cx="0" cy="-40" rx="27" ry="50" fill="url(#mandalaGrad)" transform="rotate(150.0000)"/>
<ellipse cx="0" cy="-40" rx="27" ry="50" fill="url(#mandalaGrad)" transform="rotate(180.0000)"/>
<ellipse cx="0" cy="-40" rx="27" ry="50" fill="url(#mandalaGrad)" transform="rotate(210.0000)"/>
<ellipse cx="0" cy="-40" rx="27" ry="50" fill="url(#mandalaGrad)" transform="rotate(240.0000)"/>
<ellipse cx="0" cy="-40" rx="27" ry="50" fill="url(#mandalaGrad)" transform="rotate(270.0000)"/>
<ellipse cx="0" cy="-40" rx="27" ry="50" fill="url(#mandalaGrad)" transform="rotate(300.0000)"/>
<ellipse cx="0" cy="-40" rx="27" ry="50" fill="url(#mandalaGrad)" transform="rotate(330.0000)"/>
<ellipse cx="0" cy="-40" rx="27" ry="50" fill="url(#mandalaGrad)" transform="rotate(360.0000)"/>
</g>
<g opacity=".25" filter="url(#glow)">
<ellipse cx="0" cy="-20" rx="30" ry="55" fill="url(#mandalaGrad)" transform="rotate(30.0000)"/>
<ellipse cx="0" cy="-20" rx="30" ry="55" fill="url(#mandalaGrad)" transform="rotate(60.0000)"/>
<ellipse cx="0" cy="-20" rx="30" ry="55" fill="url(#mandalaGrad)" transform="rotate(90.0000)"/>
<ellipse cx="0" cy="-20" rx="30" ry="55" fill="url(#mandalaGrad)" transform="rotate(120.0000)"/>
<ellipse cx="0" cy="-20" rx="30" ry="55" fill="url(#mandalaGrad)" transform="rotate(150.0000)"/>
<ellipse cx="0" cy="-20" rx="30" ry="55" fill="url(#mandalaGrad)" transform="rotate(180.0000)"/>
<ellipse cx="0" cy="-20" rx="30" ry="55" fill="url(#mandalaGrad)" transform="rotate(210.0000)"/>
<ellipse cx="0" cy="-20" rx="30" ry="55" fill="url(#mandalaGrad)" transform="rotate(240.0000)"/>
<ellipse cx="0" cy="-20" rx="30" ry="55" fill="url(#mandalaGrad)" transform="rotate(270.0000)"/>
<ellipse cx="0" cy="-20" rx="30" ry="55" fill="url(#mandalaGrad)" transform="rotate(300.0000)"/>
<ellipse cx="0" cy="-20" rx="30" ry="55" fill="url(#mandalaGrad)" transform="rotate(330.0000)"/>
<ellipse cx="0" cy="-20" rx="30" ry="55" fill="url(#mandalaGrad)" transform="rotate(360.0000)"/>
</g>
  
  <!-- Center -->
  <circle cx="0" cy="0" r="20" fill="url(#mandalaGrad)" filter="url(#glow)">
    <animate attributeName="r" values="18;22;18" dur="3s" repeatCount="indefinite"/>
  </circle>
  
  <!-- Karma inscription -->
  <text x="0" y="140" text-anchor="middle" font-family="monospace" font-size="8" fill="hsl(230,70%,70%)">
    karma:378 | seed:8150
  </text>
</svg>
