<svg xmlns="http://www.w3.org/2000/svg" viewBox="0 0 200 200" width="200" height="200">
  <rect width="200" height="200" fill="#0d1117"/>
  
  <!-- Ground -->
  <ellipse cx="100" cy="190" rx="80" ry="10" fill="#1a472a" opacity="0.5"/>
  
  <!-- Trunk -->
  <path d="M95,190 Q90,150 85,120 Q100,100 115,120 Q110,150 105,190 Z" fill="hsl(30,40%,25%)"/>
  
  <!-- Branches -->
  <g stroke="hsl(30,40%,30%)" stroke-width="3" fill="none">
    <path d="M100,120 Q80,100 60,90"/>
    <path d="M100,120 Q120,100 140,85"/>
    <path d="M100,100 Q85,80 70,60"/>
    <path d="M100,100 Q115,80 130,55"/>
    <path d="M100,80 Q90,60 95,40"/>
  </g>
  
  <!-- Leaves canopy -->
  <circle cx="86" cy="78" r="6" fill="hsl(76,60%,50%)" opacity="0.8"/><circle cx="122" cy="46" r="4" fill="hsl(79,60%,50%)" opacity="0.8"/><circle cx="58" cy="94" r="7" fill="hsl(82,60%,50%)" opacity="0.8"/><circle cx="94" cy="62" r="5" fill="hsl(85,60%,50%)" opacity="0.8"/><circle cx="130" cy="30" r="3" fill="hsl(88,60%,50%)" opacity="0.8"/><circle cx="66" cy="78" r="6" fill="hsl(91,60%,50%)" opacity="0.8"/><circle cx="102" cy="46" r="4" fill="hsl(94,60%,50%)" opacity="0.8"/><circle cx="138" cy="94" r="7" fill="hsl(97,60%,50%)" opacity="0.8"/><circle cx="74" cy="62" r="5" fill="hsl(100,60%,50%)" opacity="0.8"/><circle cx="110" cy="30" r="3" fill="hsl(73,60%,50%)" opacity="0.8"/><circle cx="146" cy="78" r="6" fill="hsl(76,60%,50%)" opacity="0.8"/><circle cx="82" cy="46" r="4" fill="hsl(79,60%,50%)" opacity="0.8"/><circle cx="118" cy="94" r="7" fill="hsl(82,60%,50%)" opacity="0.8"/><circle cx="54" cy="62" r="5" fill="hsl(85,60%,50%)" opacity="0.8"/><circle cx="90" cy="30" r="3" fill="hsl(88,60%,50%)" opacity="0.8"/><circle cx="126" cy="78" r="6" fill="hsl(91,60%,50%)" opacity="0.8"/><circle cx="62" cy="46" r="4" fill="hsl(94,60%,50%)" opacity="0.8"/><circle cx="98" cy="94" r="7" fill="hsl(97,60%,50%)" opacity="0.8"/><circle cx="134" cy="62" r="5" fill="hsl(100,60%,50%)" opacity="0.8"/><circle cx="70" cy="30" r="3" fill="hsl(73,60%,50%)" opacity="0.8"/><circle cx="106" cy="78" r="6" fill="hsl(76,60%,50%)" opacity="0.8"/><circle cx="142" cy="46" r="4" fill="hsl(79,60%,50%)" opacity="0.8"/><circle cx="78" cy="94" r="7" fill="hsl(82,60%,50%)" opacity="0.8"/><circle cx="114" cy="62" r="5" fill="hsl(85,60%,50%)" opacity="0.8"/><circle cx="50" cy="30" r="3" fill="hsl(88,60%,50%)" opacity="0.8"/><circle cx="86" cy="78" r="6" fill="hsl(91,60%,50%)" opacity="0.8"/><circle cx="122" cy="46" r="4" fill="hsl(94,60%,50%)" opacity="0.8"/><circle cx="58" cy="94" r="7" fill="hsl(97,60%,50%)" opacity="0.8"/><circle cx="94" cy="62" r="5" fill="hsl(100,60%,50%)" opacity="0.8"/><circle cx="130" cy="30" r="3" fill="hsl(73,60%,50%)" opacity="0.8"/><circle cx="66" cy="78" r="6" fill="hsl(76,60%,50%)" opacity="0.8"/><circle cx="102" cy="46" r="4" fill="hsl(79,60%,50%)" opacity="0.8"/><circle cx="138" cy="94" r="7" fill="hsl(82,60%,50%)" opacity="0.8"/><circle cx="74" cy="62" r="5" fill="hsl(85,60%,50%)" opacity="0.8"/><circle cx="110" cy="30" r="3" fill="hsl(88,60%,50%)" opacity="0.8"/><circle cx="146" cy="78" r="6" fill="hsl(91,60%,50%)" opacity="0.8"/><circle cx="82" cy="46" r="4" fill="hsl(94,60%,50%)" opacity="0.8"/><circle cx="118" cy="94" r="7" fill="hsl(97,60%,50%)" opacity="0.8"/><circle cx="54" cy="62" r="5" fill="hsl(100,60%,50%)" opacity="0.8"/><circle cx="90" cy="30" r="3" fill="hsl(73,60%,50%)" opacity="0.8"/><circle cx="126" cy="78" r="6" fill="hsl(76,60%,50%)" opacity="0.8"/><circle cx="62" cy="46" r="4" fill="hsl(79,60%,50%)" opacity="0.8"/><circle cx="98" cy="94" r="7" fill="hsl(82,60%,50%)" opacity="0.8"/><circle cx="134" cy="62" r="5" fill="hsl(85,60%,50%)" opacity="0.8"/><circle cx="70" cy="30" r="3" fill="hsl(88,60%,50%)" opacity="0.8"/>
  
  <!-- Info -->
  <text x="100" y="198" text-anchor="middle" font-family="monospace" font-size="5" fill="#4a5568">
    🌳 45 leaves | 12 branches | karma:378
  </text>
</svg>
