<svg xmlns="http://www.w3.org/2000/svg" viewBox="0 0 200 200" width="200" height="200">
  <rect width="200" height="200" fill="#0d1117"/>
  
  <!-- Ground -->
  <ellipse cx="100" cy="190" rx="80" ry="10" fill="#1a472a" opacity="0.5"/>
  
  <!-- Trunk -->
  <path d="M95,190 Q90,150 85,120 Q100,100 115,120 Q110,150 105,190 Z" fill="hsl(30,40%,25%)"/>
  
  <!-- Branches -->
  <g stroke="hsl(30,40%,30%)" stroke-width="3" fill="none">
    <path d="M100,120 Q80,100 60,90"/>
    <path d="M100,120 Q120,100 140,85"/>
    <path d="M100,100 Q85,80 70,60"/>
    <path d="M100,100 Q115,80 130,55"/>
    <path d="M100,80 Q90,60 95,40"/>
  </g>
  
  <!-- Leaves canopy -->
  <circle cx="95" cy="35" r="3" fill="hsl(83,60%,50%)" opacity="0.8"/><circle cx="140" cy="40" r="3" fill="hsl(86,60%,50%)" opacity="0.8"/><circle cx="85" cy="45" r="3" fill="hsl(89,60%,50%)" opacity="0.8"/><circle cx="130" cy="50" r="3" fill="hsl(92,60%,50%)" opacity="0.8"/><circle cx="75" cy="55" r="3" fill="hsl(95,60%,50%)" opacity="0.8"/><circle cx="120" cy="60" r="3" fill="hsl(98,60%,50%)" opacity="0.8"/><circle cx="65" cy="65" r="3" fill="hsl(101,60%,50%)" opacity="0.8"/><circle cx="110" cy="70" r="3" fill="hsl(104,60%,50%)" opacity="0.8"/><circle cx="55" cy="75" r="3" fill="hsl(107,60%,50%)" opacity="0.8"/><circle cx="100" cy="80" r="3" fill="hsl(80,60%,50%)" opacity="0.8"/><circle cx="145" cy="85" r="3" fill="hsl(83,60%,50%)" opacity="0.8"/><circle cx="90" cy="90" r="3" fill="hsl(86,60%,50%)" opacity="0.8"/><circle cx="135" cy="95" r="3" fill="hsl(89,60%,50%)" opacity="0.8"/><circle cx="80" cy="100" r="3" fill="hsl(92,60%,50%)" opacity="0.8"/><circle cx="125" cy="105" r="3" fill="hsl(95,60%,50%)" opacity="0.8"/><circle cx="70" cy="30" r="3" fill="hsl(98,60%,50%)" opacity="0.8"/><circle cx="115" cy="35" r="3" fill="hsl(101,60%,50%)" opacity="0.8"/><circle cx="60" cy="40" r="3" fill="hsl(104,60%,50%)" opacity="0.8"/><circle cx="105" cy="45" r="3" fill="hsl(107,60%,50%)" opacity="0.8"/><circle cx="50" cy="50" r="3" fill="hsl(80,60%,50%)" opacity="0.8"/><circle cx="95" cy="55" r="3" fill="hsl(83,60%,50%)" opacity="0.8"/><circle cx="140" cy="60" r="3" fill="hsl(86,60%,50%)" opacity="0.8"/><circle cx="85" cy="65" r="3" fill="hsl(89,60%,50%)" opacity="0.8"/><circle cx="130" cy="70" r="3" fill="hsl(92,60%,50%)" opacity="0.8"/><circle cx="75" cy="75" r="3" fill="hsl(95,60%,50%)" opacity="0.8"/><circle cx="120" cy="80" r="3" fill="hsl(98,60%,50%)" opacity="0.8"/><circle cx="65" cy="85" r="3" fill="hsl(101,60%,50%)" opacity="0.8"/><circle cx="110" cy="90" r="3" fill="hsl(104,60%,50%)" opacity="0.8"/><circle cx="55" cy="95" r="3" fill="hsl(107,60%,50%)" opacity="0.8"/><circle cx="100" cy="100" r="3" fill="hsl(80,60%,50%)" opacity="0.8"/><circle cx="145" cy="105" r="3" fill="hsl(83,60%,50%)" opacity="0.8"/><circle cx="90" cy="30" r="3" fill="hsl(86,60%,50%)" opacity="0.8"/><circle cx="135" cy="35" r="3" fill="hsl(89,60%,50%)" opacity="0.8"/><circle cx="80" cy="40" r="3" fill="hsl(92,60%,50%)" opacity="0.8"/><circle cx="125" cy="45" r="3" fill="hsl(95,60%,50%)" opacity="0.8"/><circle cx="70" cy="50" r="3" fill="hsl(98,60%,50%)" opacity="0.8"/><circle cx="115" cy="55" r="3" fill="hsl(101,60%,50%)" opacity="0.8"/><circle cx="60" cy="60" r="3" fill="hsl(104,60%,50%)" opacity="0.8"/><circle cx="105" cy="65" r="3" fill="hsl(107,60%,50%)" opacity="0.8"/><circle cx="50" cy="70" r="3" fill="hsl(80,60%,50%)" opacity="0.8"/><circle cx="95" cy="75" r="3" fill="hsl(83,60%,50%)" opacity="0.8"/><circle cx="140" cy="80" r="3" fill="hsl(86,60%,50%)" opacity="0.8"/><circle cx="85" cy="85" r="3" fill="hsl(89,60%,50%)" opacity="0.8"/><circle cx="130" cy="90" r="3" fill="hsl(92,60%,50%)" opacity="0.8"/><circle cx="75" cy="95" r="3" fill="hsl(95,60%,50%)" opacity="0.8"/><circle cx="120" cy="100" r="3" fill="hsl(98,60%,50%)" opacity="0.8"/><circle cx="65" cy="105" r="3" fill="hsl(101,60%,50%)" opacity="0.8"/><circle cx="110" cy="30" r="3" fill="hsl(104,60%,50%)" opacity="0.8"/><circle cx="55" cy="35" r="3" fill="hsl(107,60%,50%)" opacity="0.8"/><circle cx="100" cy="40" r="3" fill="hsl(80,60%,50%)" opacity="0.8"/>
  
  <!-- Info -->
  <text x="100" y="198" text-anchor="middle" font-family="monospace" font-size="5" fill="#4a5568">
    🌳 50 leaves | 12 branches | karma:378
  </text>
</svg>
