<svg xmlns="http://www.w3.org/2000/svg" viewBox="0 0 200 200" width="200" height="200">
  <rect width="200" height="200" fill="#0d1117"/>
  
  <!-- Ground -->
  <ellipse cx="100" cy="190" rx="80" ry="10" fill="#1a472a" opacity="0.5"/>
  
  <!-- Trunk -->
  <path d="M95,190 Q90,150 85,120 Q100,100 115,120 Q110,150 105,190 Z" fill="hsl(30,40%,25%)"/>
  
  <!-- Branches -->
  <g stroke="hsl(30,40%,30%)" stroke-width="3" fill="none">
    <path d="M100,120 Q80,100 60,90"/>
    <path d="M100,120 Q120,100 140,85"/>
    <path d="M100,100 Q85,80 70,60"/>
    <path d="M100,100 Q115,80 130,55"/>
    <path d="M100,80 Q90,60 95,40"/>
  </g>
  
  <!-- Leaves canopy -->
  <circle cx="57" cy="41" r="4" fill="hsl(69,60%,50%)" opacity="0.8"/><circle cx="64" cy="52" r="5" fill="hsl(72,60%,50%)" opacity="0.8"/><circle cx="71" cy="63" r="6" fill="hsl(75,60%,50%)" opacity="0.8"/><circle cx="78" cy="74" r="7" fill="hsl(78,60%,50%)" opacity="0.8"/><circle cx="85" cy="85" r="3" fill="hsl(81,60%,50%)" opacity="0.8"/><circle cx="92" cy="96" r="4" fill="hsl(84,60%,50%)" opacity="0.8"/><circle cx="99" cy="107" r="5" fill="hsl(87,60%,50%)" opacity="0.8"/><circle cx="106" cy="38" r="6" fill="hsl(90,60%,50%)" opacity="0.8"/><circle cx="113" cy="49" r="7" fill="hsl(93,60%,50%)" opacity="0.8"/><circle cx="120" cy="60" r="3" fill="hsl(66,60%,50%)" opacity="0.8"/><circle cx="127" cy="71" r="4" fill="hsl(69,60%,50%)" opacity="0.8"/><circle cx="134" cy="82" r="5" fill="hsl(72,60%,50%)" opacity="0.8"/><circle cx="141" cy="93" r="6" fill="hsl(75,60%,50%)" opacity="0.8"/><circle cx="148" cy="104" r="7" fill="hsl(78,60%,50%)" opacity="0.8"/><circle cx="55" cy="35" r="3" fill="hsl(81,60%,50%)" opacity="0.8"/><circle cx="62" cy="46" r="4" fill="hsl(84,60%,50%)" opacity="0.8"/><circle cx="69" cy="57" r="5" fill="hsl(87,60%,50%)" opacity="0.8"/><circle cx="76" cy="68" r="6" fill="hsl(90,60%,50%)" opacity="0.8"/><circle cx="83" cy="79" r="7" fill="hsl(93,60%,50%)" opacity="0.8"/><circle cx="90" cy="90" r="3" fill="hsl(66,60%,50%)" opacity="0.8"/><circle cx="97" cy="101" r="4" fill="hsl(69,60%,50%)" opacity="0.8"/><circle cx="104" cy="32" r="5" fill="hsl(72,60%,50%)" opacity="0.8"/><circle cx="111" cy="43" r="6" fill="hsl(75,60%,50%)" opacity="0.8"/><circle cx="118" cy="54" r="7" fill="hsl(78,60%,50%)" opacity="0.8"/><circle cx="125" cy="65" r="3" fill="hsl(81,60%,50%)" opacity="0.8"/><circle cx="132" cy="76" r="4" fill="hsl(84,60%,50%)" opacity="0.8"/><circle cx="139" cy="87" r="5" fill="hsl(87,60%,50%)" opacity="0.8"/><circle cx="146" cy="98" r="6" fill="hsl(90,60%,50%)" opacity="0.8"/><circle cx="53" cy="109" r="7" fill="hsl(93,60%,50%)" opacity="0.8"/><circle cx="60" cy="40" r="3" fill="hsl(66,60%,50%)" opacity="0.8"/><circle cx="67" cy="51" r="4" fill="hsl(69,60%,50%)" opacity="0.8"/><circle cx="74" cy="62" r="5" fill="hsl(72,60%,50%)" opacity="0.8"/><circle cx="81" cy="73" r="6" fill="hsl(75,60%,50%)" opacity="0.8"/><circle cx="88" cy="84" r="7" fill="hsl(78,60%,50%)" opacity="0.8"/><circle cx="95" cy="95" r="3" fill="hsl(81,60%,50%)" opacity="0.8"/><circle cx="102" cy="106" r="4" fill="hsl(84,60%,50%)" opacity="0.8"/><circle cx="109" cy="37" r="5" fill="hsl(87,60%,50%)" opacity="0.8"/><circle cx="116" cy="48" r="6" fill="hsl(90,60%,50%)" opacity="0.8"/><circle cx="123" cy="59" r="7" fill="hsl(93,60%,50%)" opacity="0.8"/><circle cx="130" cy="70" r="3" fill="hsl(66,60%,50%)" opacity="0.8"/><circle cx="137" cy="81" r="4" fill="hsl(69,60%,50%)" opacity="0.8"/><circle cx="144" cy="92" r="5" fill="hsl(72,60%,50%)" opacity="0.8"/><circle cx="51" cy="103" r="6" fill="hsl(75,60%,50%)" opacity="0.8"/><circle cx="58" cy="34" r="7" fill="hsl(78,60%,50%)" opacity="0.8"/><circle cx="65" cy="45" r="3" fill="hsl(81,60%,50%)" opacity="0.8"/>
  
  <!-- Info -->
  <text x="100" y="198" text-anchor="middle" font-family="monospace" font-size="5" fill="#4a5568">
    🌳 45 leaves | 12 branches | karma:378
  </text>
</svg>
