<svg xmlns="http://www.w3.org/2000/svg" viewBox="0 0 200 200" width="200" height="200">
  <rect width="200" height="200" fill="#0d1117"/>
  
  <!-- Ground -->
  <ellipse cx="100" cy="190" rx="80" ry="10" fill="#1a472a" opacity="0.5"/>
  
  <!-- Trunk -->
  <path d="M95,190 Q90,150 85,120 Q100,100 115,120 Q110,150 105,190 Z" fill="hsl(30,40%,25%)"/>
  
  <!-- Branches -->
  <g stroke="hsl(30,40%,30%)" stroke-width="3" fill="none">
    <path d="M100,120 Q80,100 60,90"/>
    <path d="M100,120 Q120,100 140,85"/>
    <path d="M100,100 Q85,80 70,60"/>
    <path d="M100,100 Q115,80 130,55"/>
    <path d="M100,80 Q90,60 95,40"/>
  </g>
  
  <!-- Leaves canopy -->
  <circle cx="129" cy="97" r="5" fill="hsl(85,60%,50%)" opacity="0.8"/><circle cx="108" cy="84" r="7" fill="hsl(88,60%,50%)" opacity="0.8"/><circle cx="87" cy="71" r="4" fill="hsl(91,60%,50%)" opacity="0.8"/><circle cx="66" cy="58" r="6" fill="hsl(94,60%,50%)" opacity="0.8"/><circle cx="145" cy="45" r="3" fill="hsl(97,60%,50%)" opacity="0.8"/><circle cx="124" cy="32" r="5" fill="hsl(100,60%,50%)" opacity="0.8"/><circle cx="103" cy="99" r="7" fill="hsl(103,60%,50%)" opacity="0.8"/><circle cx="82" cy="86" r="4" fill="hsl(106,60%,50%)" opacity="0.8"/><circle cx="61" cy="73" r="6" fill="hsl(109,60%,50%)" opacity="0.8"/><circle cx="140" cy="60" r="3" fill="hsl(82,60%,50%)" opacity="0.8"/><circle cx="119" cy="47" r="5" fill="hsl(85,60%,50%)" opacity="0.8"/><circle cx="98" cy="34" r="7" fill="hsl(88,60%,50%)" opacity="0.8"/><circle cx="77" cy="101" r="4" fill="hsl(91,60%,50%)" opacity="0.8"/><circle cx="56" cy="88" r="6" fill="hsl(94,60%,50%)" opacity="0.8"/><circle cx="135" cy="75" r="3" fill="hsl(97,60%,50%)" opacity="0.8"/><circle cx="114" cy="62" r="5" fill="hsl(100,60%,50%)" opacity="0.8"/><circle cx="93" cy="49" r="7" fill="hsl(103,60%,50%)" opacity="0.8"/><circle cx="72" cy="36" r="4" fill="hsl(106,60%,50%)" opacity="0.8"/><circle cx="51" cy="103" r="6" fill="hsl(109,60%,50%)" opacity="0.8"/><circle cx="130" cy="90" r="3" fill="hsl(82,60%,50%)" opacity="0.8"/><circle cx="109" cy="77" r="5" fill="hsl(85,60%,50%)" opacity="0.8"/><circle cx="88" cy="64" r="7" fill="hsl(88,60%,50%)" opacity="0.8"/><circle cx="67" cy="51" r="4" fill="hsl(91,60%,50%)" opacity="0.8"/><circle cx="146" cy="38" r="6" fill="hsl(94,60%,50%)" opacity="0.8"/><circle cx="125" cy="105" r="3" fill="hsl(97,60%,50%)" opacity="0.8"/><circle cx="104" cy="92" r="5" fill="hsl(100,60%,50%)" opacity="0.8"/><circle cx="83" cy="79" r="7" fill="hsl(103,60%,50%)" opacity="0.8"/><circle cx="62" cy="66" r="4" fill="hsl(106,60%,50%)" opacity="0.8"/><circle cx="141" cy="53" r="6" fill="hsl(109,60%,50%)" opacity="0.8"/><circle cx="120" cy="40" r="3" fill="hsl(82,60%,50%)" opacity="0.8"/><circle cx="99" cy="107" r="5" fill="hsl(85,60%,50%)" opacity="0.8"/><circle cx="78" cy="94" r="7" fill="hsl(88,60%,50%)" opacity="0.8"/><circle cx="57" cy="81" r="4" fill="hsl(91,60%,50%)" opacity="0.8"/><circle cx="136" cy="68" r="6" fill="hsl(94,60%,50%)" opacity="0.8"/><circle cx="115" cy="55" r="3" fill="hsl(97,60%,50%)" opacity="0.8"/><circle cx="94" cy="42" r="5" fill="hsl(100,60%,50%)" opacity="0.8"/><circle cx="73" cy="109" r="7" fill="hsl(103,60%,50%)" opacity="0.8"/><circle cx="52" cy="96" r="4" fill="hsl(106,60%,50%)" opacity="0.8"/><circle cx="131" cy="83" r="6" fill="hsl(109,60%,50%)" opacity="0.8"/><circle cx="110" cy="70" r="3" fill="hsl(82,60%,50%)" opacity="0.8"/><circle cx="89" cy="57" r="5" fill="hsl(85,60%,50%)" opacity="0.8"/><circle cx="68" cy="44" r="7" fill="hsl(88,60%,50%)" opacity="0.8"/><circle cx="147" cy="31" r="4" fill="hsl(91,60%,50%)" opacity="0.8"/><circle cx="126" cy="98" r="6" fill="hsl(94,60%,50%)" opacity="0.8"/><circle cx="105" cy="85" r="3" fill="hsl(97,60%,50%)" opacity="0.8"/><circle cx="84" cy="72" r="5" fill="hsl(100,60%,50%)" opacity="0.8"/><circle cx="63" cy="59" r="7" fill="hsl(103,60%,50%)" opacity="0.8"/><circle cx="142" cy="46" r="4" fill="hsl(106,60%,50%)" opacity="0.8"/><circle cx="121" cy="33" r="6" fill="hsl(109,60%,50%)" opacity="0.8"/><circle cx="100" cy="100" r="3" fill="hsl(82,60%,50%)" opacity="0.8"/>
  
  <!-- Info -->
  <text x="100" y="198" text-anchor="middle" font-family="monospace" font-size="5" fill="#4a5568">
    🌳 50 leaves | 12 branches | karma:378
  </text>
</svg>
